<svg width="240" height="118" viewBox="0 0 240 118" fill="none" xmlns="http://www.w3.org/2000/svg">
<rect x="160" y="7.99994" width="60" height="50" rx="3.50693" fill="#677272"/>
<path d="M157 21H160V47L157 43.1825V21Z" fill="#3B4848"/>
<path d="M223 46.9999L220 46.9999L220 20.9999L223 24.8174L223 46.9999Z" fill="#3B4848"/>
<rect x="69" y="21" width="61" height="51" rx="4.54549" fill="#677272"/>
<path d="M72.5 23L73.145 23.3828L73.799 23.75L73.79 24.5L73.799 25.25L73.145 25.6172L72.5 26L71.855 25.6172L71.201 25.25L71.21 24.5L71.201 23.75L71.855 23.3828L72.5 23Z" fill="#8D9595"/>
<path d="M72.5 67.0251L73.145 67.408L73.799 67.7751L73.79 68.5251L73.799 69.2751L73.145 69.6423L72.5 70.0251L71.855 69.6423L71.201 69.2751L71.21 68.5251L71.201 67.7751L71.855 67.408L72.5 67.0251Z" fill="#8D9595"/>
<path d="M72.5 44.5127L73.145 44.8955L73.799 45.2627L73.79 46.0127L73.799 46.7627L73.145 47.1299L72.5 47.5127L71.855 47.1299L71.201 46.7627L71.21 46.0127L71.201 45.2627L71.855 44.8955L72.5 44.5127Z" fill="#8D9595"/>
<path d="M126.5 23L127.145 23.3828L127.799 23.75L127.79 24.5L127.799 25.25L127.145 25.6172L126.5 26L125.855 25.6172L125.201 25.25L125.21 24.5L125.201 23.75L125.855 23.3828L126.5 23Z" fill="#8D9595"/>
<path d="M126.5 67.0251L127.145 67.408L127.799 67.7751L127.79 68.5251L127.799 69.2751L127.145 69.6423L126.5 70.0251L125.855 69.6423L125.201 69.2751L125.21 68.5251L125.201 67.7751L125.855 67.408L126.5 67.0251Z" fill="#8D9595"/>
<path d="M126.5 44.5127L127.145 44.8955L127.799 45.2627L127.79 46.0127L127.799 46.7627L127.145 47.1299L126.5 47.5127L125.855 47.1299L125.201 46.7627L125.21 46.0127L125.201 45.2627L125.855 44.8955L126.5 44.5127Z" fill="#8D9595"/>
<path d="M99.8271 23L100.472 23.3829L101.126 23.75L101.117 24.5L101.126 25.25L100.472 25.6172L99.8271 26L99.1821 25.6172L98.5281 25.25L98.5371 24.5L98.5281 23.75L99.1821 23.3829L99.8271 23Z" fill="#8D9595"/>
<path d="M99.8271 67.0251L100.472 67.408L101.126 67.7751L101.117 68.5251L101.126 69.2751L100.472 69.6423L99.8271 70.0251L99.1821 69.6423L98.5281 69.2751L98.5371 68.5251L98.5281 67.7751L99.1821 67.408L99.8271 67.0251Z" fill="#8D9595"/>
<mask id="path-13-inside-1_8_2408" fill="white">
<rect x="77" y="29.0001" width="21" height="16" rx="0.757583"/>
</mask>
<rect x="77" y="29.0001" width="21" height="16" rx="0.757583" fill="#414F4F" stroke="#8D9595" stroke-width="2" mask="url(#path-13-inside-1_8_2408)"/>
<mask id="path-14-inside-2_8_2408" fill="white">
<rect x="77" y="48.0001" width="21" height="16" rx="0.757583"/>
</mask>
<rect x="77" y="48.0001" width="21" height="16" rx="0.757583" fill="#414F4F" stroke="#8D9595" stroke-width="2" mask="url(#path-14-inside-2_8_2408)"/>
<mask id="path-15-inside-3_8_2408" fill="white">
<rect x="101" y="29.0001" width="21" height="16" rx="0.757583"/>
</mask>
<rect x="101" y="29.0001" width="21" height="16" rx="0.757583" fill="#414F4F" stroke="#8D9595" stroke-width="2" mask="url(#path-15-inside-3_8_2408)"/>
<mask id="path-16-inside-4_8_2408" fill="white">
<rect x="101" y="48.0001" width="21" height="16" rx="0.757583"/>
</mask>
<rect x="101" y="48.0001" width="21" height="16" rx="0.757583" fill="#414F4F" stroke="#8D9595" stroke-width="2" mask="url(#path-16-inside-4_8_2408)"/>
<rect y="46" width="16" height="28" rx="2.27275" fill="#677272"/>
<path d="M2.5 47.2949L3.145 47.6777L3.79904 48.0449L3.79 48.7949L3.79904 49.5449L3.145 49.9121L2.5 50.2949L1.855 49.9121L1.20096 49.5449L1.21 48.7949L1.20096 48.0449L1.855 47.6777L2.5 47.2949Z" fill="#8D9595"/>
<path d="M2.5 70.2526L3.145 70.6354L3.79904 71.0026L3.79 71.7526L3.79904 72.5026L3.145 72.8697L2.5 73.2526L1.855 72.8697L1.20096 72.5026L1.21 71.7526L1.20096 71.0026L1.855 70.6354L2.5 70.2526Z" fill="#8D9595"/>
<path d="M13.5 47.2525L14.145 47.6354L14.799 48.0025L14.79 48.7525L14.799 49.5025L14.145 49.8697L13.5 50.2525L12.855 49.8697L12.201 49.5025L12.21 48.7525L12.201 48.0025L12.855 47.6354L13.5 47.2525Z" fill="#8D9595"/>
<path d="M13.5 70.2526L14.145 70.6354L14.799 71.0026L14.79 71.7526L14.799 72.5026L14.145 72.8697L13.5 73.2526L12.855 72.8697L12.201 72.5026L12.21 71.7526L12.201 71.0026L12.855 70.6354L13.5 70.2526Z" fill="#8D9595"/>
<path d="M4 56H19V66H4V56Z" fill="#3B4848"/>
<mask id="path-23-inside-5_8_2408" fill="white">
<rect x="3" y="51" width="10" height="18" rx="0.757583"/>
</mask>
<rect x="3" y="51" width="10" height="18" rx="0.757583" fill="#414F4F" stroke="#8D9595" stroke-width="2" mask="url(#path-23-inside-5_8_2408)"/>
<rect x="45" y="46" width="16" height="28" rx="2.27275" fill="#677272"/>
<path d="M47.5 47.2949L48.145 47.6777L48.799 48.0449L48.79 48.7949L48.799 49.5449L48.145 49.9121L47.5 50.2949L46.855 49.9121L46.201 49.5449L46.21 48.7949L46.201 48.0449L46.855 47.6777L47.5 47.2949Z" fill="#8D9595"/>
<path d="M47.5 70.2526L48.145 70.6354L48.799 71.0026L48.79 71.7526L48.799 72.5026L48.145 72.8697L47.5 73.2526L46.855 72.8697L46.201 72.5026L46.21 71.7526L46.201 71.0026L46.855 70.6354L47.5 70.2526Z" fill="#8D9595"/>
<path d="M58.5 47.2526L59.145 47.6354L59.799 48.0026L59.79 48.7526L59.799 49.5026L59.145 49.8697L58.5 50.2526L57.855 49.8697L57.201 49.5026L57.21 48.7526L57.201 48.0026L57.855 47.6354L58.5 47.2526Z" fill="#8D9595"/>
<path d="M58.5 70.2526L59.145 70.6354L59.799 71.0026L59.79 71.7526L59.799 72.5026L59.145 72.8697L58.5 73.2526L57.855 72.8697L57.201 72.5026L57.21 71.7526L57.201 71.0026L57.855 70.6354L58.5 70.2526Z" fill="#8D9595"/>
<path d="M43 56H69V66H43V56Z" fill="#3B4848"/>
<mask id="path-30-inside-6_8_2408" fill="white">
<rect x="48" y="51" width="10" height="18" rx="0.757583"/>
</mask>
<rect x="48" y="51" width="10" height="18" rx="0.757583" fill="#414F4F" stroke="#8D9595" stroke-width="2" mask="url(#path-30-inside-6_8_2408)"/>
<rect x="140" y="19" width="16" height="28" rx="2.27275" fill="#677272"/>
<path d="M142.5 20.2949L143.145 20.6777L143.799 21.0449L143.79 21.7949L143.799 22.5449L143.145 22.9121L142.5 23.2949L141.855 22.9121L141.201 22.5449L141.21 21.7949L141.201 21.0449L141.855 20.6777L142.5 20.2949Z" fill="#8D9595"/>
<path d="M142.5 43.2526L143.145 43.6354L143.799 44.0026L143.79 44.7526L143.799 45.5026L143.145 45.8697L142.5 46.2526L141.855 45.8697L141.201 45.5026L141.21 44.7526L141.201 44.0026L141.855 43.6354L142.5 43.2526Z" fill="#8D9595"/>
<path d="M153.5 20.2526L154.145 20.6354L154.799 21.0026L154.79 21.7526L154.799 22.5026L154.145 22.8697L153.5 23.2526L152.855 22.8697L152.201 22.5026L152.21 21.7526L152.201 21.0026L152.855 20.6354L153.5 20.2526Z" fill="#8D9595"/>
<path d="M153.5 43.2526L154.145 43.6354L154.799 44.0026L154.79 44.7526L154.799 45.5026L154.145 45.8697L153.5 46.2526L152.855 45.8697L152.201 45.5026L152.21 44.7526L152.201 44.0026L152.855 43.6354L153.5 43.2526Z" fill="#8D9595"/>
<path d="M130 29H157V39H130V29Z" fill="#3B4848"/>
<mask id="path-37-inside-7_8_2408" fill="white">
<rect x="143" y="24" width="10" height="18" rx="0.757583"/>
</mask>
<rect x="143" y="24" width="10" height="18" rx="0.757583" fill="#414F4F" stroke="#8D9595" stroke-width="2" mask="url(#path-37-inside-7_8_2408)"/>
<rect x="224" y="19" width="16" height="28" rx="2.27275" fill="#677272"/>
<path d="M226.5 20.2949L227.145 20.6777L227.799 21.0449L227.79 21.7949L227.799 22.5449L227.145 22.9121L226.5 23.2949L225.855 22.9121L225.201 22.5449L225.21 21.7949L225.201 21.0449L225.855 20.6777L226.5 20.2949Z" fill="#8D9595"/>
<path d="M226.5 43.2526L227.145 43.6354L227.799 44.0026L227.79 44.7526L227.799 45.5026L227.145 45.8697L226.5 46.2526L225.855 45.8697L225.201 45.5026L225.21 44.7526L225.201 44.0026L225.855 43.6354L226.5 43.2526Z" fill="#8D9595"/>
<path d="M237.5 20.2526L238.145 20.6354L238.799 21.0026L238.79 21.7526L238.799 22.5026L238.145 22.8697L237.5 23.2526L236.855 22.8697L236.201 22.5026L236.21 21.7526L236.201 21.0026L236.855 20.6354L237.5 20.2526Z" fill="#8D9595"/>
<path d="M237.5 43.2526L238.145 43.6354L238.799 44.0026L238.79 44.7526L238.799 45.5026L238.145 45.8697L237.5 46.2526L236.855 45.8697L236.201 45.5026L236.21 44.7526L236.201 44.0026L236.855 43.6354L237.5 43.2526Z" fill="#8D9595"/>
<path d="M221 29H237V39H221V29Z" fill="#3B4848"/>
<mask id="path-44-inside-8_8_2408" fill="white">
<rect x="227" y="24" width="10" height="18" rx="0.757583"/>
</mask>
<rect x="227" y="24" width="10" height="18" rx="0.757583" fill="#414F4F" stroke="#8D9595" stroke-width="2" mask="url(#path-44-inside-8_8_2408)"/>
<rect x="19.526" y="31.5261" width="22.9479" height="54.9479" fill="#8D9595" stroke="#677272" stroke-width="1.05208"/>
<rect x="19.2742" y="33.437" width="23.0458" height="1.40277" fill="#677272"/>
<rect x="19.2742" y="39.0482" width="23.0458" height="1.40277" fill="#677272"/>
<rect x="19.2742" y="44.6593" width="23.0458" height="1.40277" fill="#677272"/>
<rect x="19.2742" y="50.2704" width="23.0458" height="1.40277" fill="#677272"/>
<rect x="19.2742" y="55.8815" width="23.0458" height="1.40277" fill="#677272"/>
<rect x="19.2742" y="61.4924" width="23.0458" height="1.40277" fill="#677272"/>
<rect x="19.2742" y="67.1037" width="23.0458" height="1.40277" fill="#677272"/>
<rect x="19.2742" y="72.7148" width="23.0458" height="1.40277" fill="#677272"/>
<rect x="19.2742" y="78.3259" width="23.0458" height="1.40277" fill="#677272"/>
<rect x="19.2742" y="83.937" width="23.0458" height="1.40277" fill="#677272"/>
<path d="M1.9397 10.0395L19 30.9999H43L60.4462 10.0395V-6.10352e-05H1.9397V10.0395Z" fill="#677272"/>
<path d="M60 108.129L43 86.9999L18.9474 86.9999L2 108.129L2 118L60 118L60 108.129Z" fill="#677272"/>
</svg>
