<svg width="14" height="14" viewBox="0 0 14 14" fill="none" xmlns="http://www.w3.org/2000/svg">
<path d="M10.9371 8.74986C10.9371 11.1662 9.416 12.6874 6.99963 12.6874C4.58327 12.6874 3.06213 11.1662 3.06213 8.74986C3.06213 6.15685 5.88483 2.6563 6.75053 1.64376C6.78134 1.60779 6.81956 1.57891 6.86259 1.55911C6.90561 1.53931 6.95241 1.52905 6.99977 1.52905C7.04713 1.52905 7.09393 1.53931 7.13695 1.55911C7.17998 1.57891 7.2182 1.60779 7.24901 1.64376C8.11444 2.6563 10.9371 6.15685 10.9371 8.74986Z" stroke="black" stroke-width="1.00189" stroke-miterlimit="10"/>
<path d="M9.40733 8.9682C9.40733 9.49073 9.19976 9.99186 8.83027 10.3613C8.46079 10.7308 7.95966 10.9384 7.43713 10.9384" stroke="black" stroke-width="1.00189" stroke-linecap="round" stroke-linejoin="round"/>
</svg>
