<svg width="130" height="22" viewBox="0 0 130 22" fill="none" xmlns="http://www.w3.org/2000/svg">
<path d="M20.297 0.5H0V4.66599H20.297V0.5Z" fill="#FCB53B"/>
<path d="M20.297 8.91641H0V13.0824H20.297V8.91641Z" fill="#F57F29"/>
<path d="M20.297 17.3338H0V21.4998H20.297V17.3338Z" fill="#E32213"/>
<path d="M28.4316 0.500004V21.5H45.113V17.334H32.4582V13.083H45.113V8.91701H32.4582V4.666H45.113V0.500004H28.4316Z" fill="black"/>
<path fill-rule="evenodd" clip-rule="evenodd" d="M96.0616 0.500004L88.255 21.5H92.939L94.5003 17.249H103.95L105.512 21.415H110.113L101.814 0.500004H96.0616ZM99.1842 4.666L102.389 13.083H95.9794L99.1842 4.666Z" fill="black"/>
<path d="M112.907 21.4996V17.1636H123.754C124.823 17.1636 125.727 16.2284 125.727 15.1231C125.727 14.0179 124.823 13.0826 123.754 13.0826H114.962V8.91664H123.754C124.823 8.91664 125.727 7.98142 125.727 6.87616C125.727 5.77089 124.823 4.83567 123.754 4.83567H112.907V0.584659H123.919C127.206 0.584659 130 3.39033 130 6.79114C130 8.40652 129.671 9.76684 127.534 11.0421C129.424 12.0624 130 13.6778 130 15.2932C130 19.2041 127.206 21.4996 123.919 21.4996H112.907Z" fill="black"/>
<path fill-rule="evenodd" clip-rule="evenodd" d="M82.6667 0.500004H71.491V21.5H75.5175V13.083H82.6667C86.0358 13.083 88.7475 10.2773 88.7475 6.7915C88.7475 3.30567 86.0358 0.500004 82.6667 0.500004ZM82.5023 8.91701H75.5175V4.75102H82.5023C83.5706 4.75102 84.4745 5.68624 84.4745 6.7915C84.4745 7.98178 83.5706 8.91701 82.5023 8.91701Z" fill="black"/>
<path fill-rule="evenodd" clip-rule="evenodd" d="M67.1362 6.70648C67.1362 8.32187 66.8075 9.68219 64.671 10.9575C66.561 12.0628 67.3006 13.6781 67.3827 15.2935C67.3827 19.2045 64.5888 21.5 61.3019 21.5H49.9619V0.500004H61.0553C64.3423 0.500004 67.1362 3.30567 67.1362 6.70648ZM60.8088 4.75102H53.9884V8.83199H60.8088C61.8771 8.83199 62.781 7.89676 62.781 6.7915C62.781 5.68624 61.8771 4.75102 60.8088 4.75102ZM53.9884 17.249H61.0553C62.2058 17.249 63.1097 16.3138 63.0275 15.1235C63.0275 14.0182 62.1236 13.083 61.0553 13.083H53.9884V17.249Z" fill="black"/>
</svg>
