<svg width="1760" height="755" viewBox="0 0 1760 755" fill="none" xmlns="http://www.w3.org/2000/svg">
<path d="M901.496 356.699H1382.54V385.699H901.496V356.699Z" fill="#E7E7E7"/>
<rect x="946.036" y="338.242" width="33.9199" height="62.9199" rx="1.62018" fill="#F0F0F0" stroke="#677272" stroke-width="1.08012"/>
<rect x="1018.5" y="308.699" width="59" height="100" rx="10" fill="#8D9595"/>
<path d="M1030 313.7L1032.79 315.358L1035.63 316.95L1035.59 320.2L1035.63 323.45L1032.79 325.041L1030 326.7L1027.2 325.041L1024.37 323.45L1024.41 320.2L1024.37 316.95L1027.2 315.358L1030 313.7Z" fill="#677272"/>
<circle cx="1030.05" cy="320.254" r="2.56111" fill="#B3B9B9"/>
<path d="M1030 390.7L1032.79 392.358L1035.63 393.95L1035.59 397.2L1035.63 400.45L1032.79 402.041L1030 403.7L1027.2 402.041L1024.37 400.45L1024.41 397.2L1024.37 393.95L1027.2 392.358L1030 390.7Z" fill="#677272"/>
<circle cx="1030.05" cy="397.254" r="2.56111" fill="#B3B9B9"/>
<path d="M1066 313.7L1068.79 315.358L1071.63 316.95L1071.59 320.2L1071.63 323.45L1068.79 325.041L1066 326.7L1063.2 325.041L1060.37 323.45L1060.41 320.2L1060.37 316.95L1063.2 315.358L1066 313.7Z" fill="#677272"/>
<circle cx="1066.05" cy="320.254" r="2.56111" fill="#B3B9B9"/>
<path d="M1066 390.7L1068.79 392.358L1071.63 393.95L1071.59 397.2L1071.63 400.45L1068.79 402.041L1066 403.7L1063.2 402.041L1060.37 400.45L1060.41 397.2L1060.37 393.95L1063.2 392.358L1066 390.7Z" fill="#677272"/>
<circle cx="1066.05" cy="397.254" r="2.56111" fill="#B3B9B9"/>
<rect x="1031.88" y="327.24" width="33.9199" height="62.9199" rx="1.62018" fill="#F0F0F0" stroke="#677272" stroke-width="1.08012"/>
<rect x="1349.5" y="308.699" width="59" height="100" rx="10" fill="#8D9595"/>
<path d="M1361 313.7L1363.79 315.358L1366.63 316.95L1366.59 320.2L1366.63 323.45L1363.79 325.041L1361 326.7L1358.2 325.041L1355.37 323.45L1355.41 320.2L1355.37 316.95L1358.2 315.358L1361 313.7Z" fill="#677272"/>
<circle cx="1361.05" cy="320.254" r="2.56111" fill="#B3B9B9"/>
<path d="M1361 390.7L1363.79 392.358L1366.63 393.95L1366.59 397.2L1366.63 400.45L1363.79 402.041L1361 403.7L1358.2 402.041L1355.37 400.45L1355.41 397.2L1355.37 393.95L1358.2 392.358L1361 390.7Z" fill="#677272"/>
<circle cx="1361.05" cy="397.254" r="2.56111" fill="#B3B9B9"/>
<path d="M1397 313.7L1399.79 315.358L1402.63 316.95L1402.59 320.2L1402.63 323.45L1399.79 325.041L1397 326.7L1394.2 325.041L1391.37 323.45L1391.41 320.2L1391.37 316.95L1394.2 315.358L1397 313.7Z" fill="#677272"/>
<circle cx="1397.05" cy="320.254" r="2.56111" fill="#B3B9B9"/>
<path d="M1397 390.7L1399.79 392.358L1402.63 393.95L1402.59 397.2L1402.63 400.45L1399.79 402.041L1397 403.7L1394.2 402.041L1391.37 400.45L1391.41 397.2L1391.37 393.95L1394.2 392.358L1397 390.7Z" fill="#677272"/>
<circle cx="1397.05" cy="397.254" r="2.56111" fill="#B3B9B9"/>
<path d="M1339.5 345.699H1396.5V374.699H1339.5V345.699Z" fill="#E7E7E7"/>
<rect x="1362.04" y="327.24" width="33.9199" height="62.9199" rx="1.62018" fill="#F0F0F0" stroke="#677272" stroke-width="1.08012"/>
<rect x="1098.5" y="286.702" width="230" height="148" rx="9" fill="#EFF2F6"/>
<rect x="1098.5" y="286.702" width="230" height="148" rx="9" stroke="white" stroke-width="2"/>
<path d="M1087.5 325.702H1097.5V396.702L1087.5 386.277V325.702Z" fill="#8D9595"/>
<path d="M1339.5 395.702L1329.5 395.702L1329.5 324.702L1339.5 335.127L1339.5 395.702Z" fill="#8D9595"/>
<rect x="1255.44" y="137.763" width="9" height="147.941" fill="#677272"/>
<rect x="1258.44" y="134.723" width="3" height="150.526" fill="white"/>
<rect x="851.495" y="49.7004" width="230" height="163" rx="9" fill="#EFF2F6"/>
<rect x="851.495" y="49.7004" width="230" height="163" rx="9" stroke="white" stroke-width="2"/>
<path d="M363.496 403.7C363.496 398.177 367.973 393.7 373.496 393.7H412.496C418.018 393.7 422.496 398.177 422.496 403.7V483.7C422.496 489.223 418.018 493.7 412.496 493.7H373.496C367.973 493.7 363.496 489.223 363.496 483.7V403.7Z" fill="#8D9595"/>
<path d="M374.996 398.7L377.791 400.359L380.625 401.95L380.586 405.2L380.625 408.45L377.791 410.041L374.996 411.7L372.201 410.041L369.366 408.45L369.406 405.2L369.366 401.95L372.201 400.359L374.996 398.7Z" fill="#677272"/>
<circle cx="375.049" cy="405.254" r="2.56111" fill="#B3B9B9"/>
<path d="M374.996 475.7L377.791 477.359L380.625 478.95L380.586 482.2L380.625 485.45L377.791 487.041L374.996 488.7L372.201 487.041L369.366 485.45L369.406 482.2L369.366 478.95L372.201 477.359L374.996 475.7Z" fill="#677272"/>
<circle cx="375.049" cy="482.254" r="2.56111" fill="#B3B9B9"/>
<path d="M410.996 398.7L413.791 400.359L416.625 401.95L416.586 405.2L416.625 408.45L413.791 410.041L410.996 411.7L408.201 410.041L405.366 408.45L405.406 405.2L405.366 401.95L408.201 400.359L410.996 398.7Z" fill="#677272"/>
<circle cx="411.049" cy="405.254" r="2.56111" fill="#B3B9B9"/>
<path d="M410.996 475.7L413.791 477.359L416.625 478.95L416.586 482.2L416.625 485.45L413.791 487.041L410.996 488.7L408.201 487.041L405.366 485.45L405.406 482.2L405.366 478.95L408.201 477.359L410.996 475.7Z" fill="#677272"/>
<circle cx="411.049" cy="482.254" r="2.56111" fill="#B3B9B9"/>
<path d="M405.138 427.855H529.496V456.736H405.138V427.855Z" fill="#E7E7E7"/>
<path d="M377.655 412.24H408.335C409.23 412.24 409.955 412.966 409.955 413.861V473.54C409.955 474.435 409.23 475.16 408.335 475.16H377.655C376.761 475.16 376.035 474.435 376.035 473.54V413.861C376.035 412.966 376.761 412.24 377.655 412.24Z" fill="#F0F0F0" stroke="#677272" stroke-width="1.08012"/>
<path d="M492.496 427.7H731.119V456.7H492.496V427.7Z" fill="#E7E7E7"/>
<path d="M552.496 403.7C552.496 398.177 556.973 393.7 562.496 393.7H601.496C607.018 393.7 611.496 398.177 611.496 403.7V483.7C611.496 489.223 607.018 493.7 601.496 493.7H562.496C556.973 493.7 552.496 489.223 552.496 483.7V403.7Z" fill="#8D9595"/>
<path d="M563.996 398.7L566.791 400.359L569.625 401.95L569.586 405.2L569.625 408.45L566.791 410.041L563.996 411.7L561.201 410.041L558.366 408.45L558.406 405.2L558.366 401.95L561.201 400.359L563.996 398.7Z" fill="#677272"/>
<path d="M566.61 405.254C566.61 406.669 565.463 407.816 564.049 407.816C562.634 407.816 561.488 406.669 561.488 405.254C561.488 403.84 562.634 402.693 564.049 402.693C565.463 402.693 566.61 403.84 566.61 405.254Z" fill="#B3B9B9"/>
<path d="M563.996 475.7L566.791 477.359L569.625 478.95L569.586 482.2L569.625 485.45L566.791 487.041L563.996 488.7L561.201 487.041L558.366 485.45L558.406 482.2L558.366 478.95L561.201 477.359L563.996 475.7Z" fill="#677272"/>
<path d="M566.61 482.254C566.61 483.669 565.463 484.816 564.049 484.816C562.634 484.816 561.488 483.669 561.488 482.254C561.488 480.84 562.634 479.693 564.049 479.693C565.463 479.693 566.61 480.84 566.61 482.254Z" fill="#B3B9B9"/>
<path d="M599.996 398.7L602.791 400.359L605.625 401.95L605.586 405.2L605.625 408.45L602.791 410.041L599.996 411.7L597.201 410.041L594.366 408.45L594.406 405.2L594.366 401.95L597.201 400.359L599.996 398.7Z" fill="#677272"/>
<path d="M602.61 405.254C602.61 406.669 601.463 407.816 600.049 407.816C598.634 407.816 597.488 406.669 597.488 405.254C597.488 403.84 598.634 402.693 600.049 402.693C601.463 402.693 602.61 403.84 602.61 405.254Z" fill="#B3B9B9"/>
<path d="M599.996 475.7L602.791 477.359L605.625 478.95L605.586 482.2L605.625 485.45L602.791 487.041L599.996 488.7L597.201 487.041L594.366 485.45L594.406 482.2L594.366 478.95L597.201 477.359L599.996 475.7Z" fill="#677272"/>
<path d="M602.61 482.254C602.61 483.669 601.463 484.816 600.049 484.816C598.634 484.816 597.488 483.669 597.488 482.254C597.488 480.84 598.634 479.693 600.049 479.693C601.463 479.693 602.61 480.84 602.61 482.254Z" fill="#B3B9B9"/>
<path d="M567.119 413.861C567.119 412.667 568.086 411.7 569.279 411.7H599.958C601.151 411.7 602.119 412.667 602.119 413.861V473.54C602.119 474.733 601.151 475.7 599.958 475.7H569.279C568.086 475.7 567.119 474.733 567.119 473.54V413.861Z" fill="#F0F0F0"/>
<path d="M564.271 398.236L563.996 398.072L563.72 398.236L560.931 399.892L558.102 401.479L557.823 401.636L557.826 401.957L557.866 405.2L557.826 408.444L557.823 408.764L558.102 408.921L560.931 410.509L563.72 412.165L563.996 412.328L564.271 412.165L567.061 410.509L569.889 408.921L570.169 408.764L570.165 408.444L570.126 405.2L570.165 401.957L570.169 401.636L569.889 401.479L567.061 399.892L564.271 398.236ZM566.515 400.824L566.515 400.824L566.526 400.83L569.081 402.264L569.046 405.194L569.045 405.194L569.046 405.207L569.081 408.136L566.526 409.571L566.526 409.57L566.515 409.577L563.996 411.072L561.476 409.577L561.476 409.577L561.465 409.571L558.91 408.136L558.946 405.207L558.946 405.207L558.946 405.194L558.91 402.264L561.465 400.83L561.465 400.83L561.476 400.824L563.996 399.328L566.515 400.824ZM564.271 475.236L563.996 475.072L563.72 475.236L560.931 476.892L558.102 478.479L557.823 478.636L557.826 478.957L557.866 482.2L557.826 485.444L557.823 485.764L558.102 485.921L560.931 487.509L563.72 489.165L563.996 489.328L564.271 489.165L567.061 487.509L569.889 485.921L570.169 485.764L570.165 485.444L570.126 482.2L570.165 478.957L570.169 478.636L569.889 478.479L567.061 476.892L564.271 475.236ZM566.515 477.824L566.515 477.824L566.526 477.83L569.081 479.264L569.046 482.194H569.045L569.046 482.207L569.081 485.136L566.526 486.571L566.526 486.57L566.515 486.577L563.996 488.072L561.476 486.577L561.476 486.577L561.465 486.571L558.91 485.136L558.946 482.207H558.946L558.946 482.194L558.91 479.264L561.465 477.83L561.465 477.83L561.476 477.824L563.996 476.328L566.515 477.824ZM600.271 398.236L599.996 398.072L599.72 398.236L596.931 399.892L594.102 401.479L593.823 401.636L593.826 401.957L593.866 405.2L593.826 408.444L593.823 408.764L594.102 408.921L596.931 410.509L598.027 411.16H569.279C567.788 411.16 566.579 412.369 566.579 413.861V473.54C566.579 475.031 567.788 476.24 569.279 476.24H598.028L596.931 476.892L594.102 478.479L593.823 478.636L593.826 478.957L593.866 482.2L593.826 485.444L593.823 485.764L594.102 485.921L596.931 487.509L599.72 489.165L599.996 489.328L600.271 489.165L603.061 487.509L605.889 485.921L606.169 485.764L606.165 485.444L606.126 482.2L606.165 478.957L606.169 478.636L605.889 478.479L603.061 476.892L601.332 475.865C602.126 475.395 602.659 474.53 602.659 473.54V413.861C602.659 412.871 602.126 412.005 601.332 411.535L603.061 410.509L605.889 408.921L606.169 408.764L606.165 408.444L606.126 405.2L606.165 401.957L606.169 401.636L605.889 401.479L603.061 399.892L600.271 398.236ZM602.515 409.577L599.996 411.072L597.476 409.577L597.476 409.577L597.465 409.571L594.91 408.136L594.946 405.207L594.946 405.207L594.946 405.194L594.91 402.264L597.465 400.83L597.465 400.83L597.476 400.824L599.996 399.328L602.515 400.824L602.515 400.824L602.526 400.83L605.081 402.264L605.046 405.194L605.045 405.194L605.046 405.207L605.081 408.136L602.526 409.571L602.526 409.57L602.515 409.577ZM569.279 412.24H599.847L599.996 412.328L600.129 412.249C600.944 412.334 601.579 413.023 601.579 413.861V473.54C601.579 474.377 600.944 475.066 600.129 475.151L599.996 475.072L599.848 475.16H569.279C568.384 475.16 567.659 474.435 567.659 473.54V413.861C567.659 412.966 568.384 412.24 569.279 412.24ZM597.476 477.824L599.996 476.328L602.515 477.824L602.515 477.824L602.526 477.83L605.081 479.264L605.046 482.194H605.045L605.046 482.207L605.081 485.136L602.526 486.571L602.526 486.57L602.515 486.577L599.996 488.072L597.476 486.577L597.476 486.577L597.465 486.571L594.91 485.136L594.946 482.207H594.946L594.946 482.194L594.91 479.264L597.465 477.83L597.465 477.83L597.476 477.824ZM562.496 394.24H601.496C606.72 394.24 610.956 398.476 610.956 403.7V483.7C610.956 488.925 606.72 493.16 601.496 493.16H562.496C557.271 493.16 553.036 488.925 553.036 483.7V403.7C553.036 398.476 557.271 394.24 562.496 394.24ZM566.07 405.254C566.07 406.371 565.165 407.275 564.049 407.275C562.933 407.275 562.028 406.371 562.028 405.254C562.028 404.138 562.933 403.233 564.049 403.233C565.165 403.233 566.07 404.138 566.07 405.254ZM564.049 408.356C565.762 408.356 567.15 406.967 567.15 405.254C567.15 403.542 565.762 402.153 564.049 402.153C562.336 402.153 560.948 403.542 560.948 405.254C560.948 406.967 562.336 408.356 564.049 408.356ZM566.07 482.254C566.07 483.371 565.165 484.275 564.049 484.275C562.933 484.275 562.028 483.371 562.028 482.254C562.028 481.138 562.933 480.233 564.049 480.233C565.165 480.233 566.07 481.138 566.07 482.254ZM564.049 485.356C565.762 485.356 567.15 483.967 567.15 482.254C567.15 480.542 565.762 479.153 564.049 479.153C562.336 479.153 560.948 480.542 560.948 482.254C560.948 483.967 562.336 485.356 564.049 485.356ZM602.07 405.254C602.07 406.371 601.165 407.275 600.049 407.275C598.933 407.275 598.028 406.371 598.028 405.254C598.028 404.138 598.933 403.233 600.049 403.233C601.165 403.233 602.07 404.138 602.07 405.254ZM600.049 408.356C601.762 408.356 603.15 406.967 603.15 405.254C603.15 403.542 601.762 402.153 600.049 402.153C598.336 402.153 596.948 403.542 596.948 405.254C596.948 406.967 598.336 408.356 600.049 408.356ZM602.07 482.254C602.07 483.371 601.165 484.275 600.049 484.275C598.933 484.275 598.028 483.371 598.028 482.254C598.028 481.138 598.933 480.233 600.049 480.233C601.165 480.233 602.07 481.138 602.07 482.254ZM600.049 485.356C601.762 485.356 603.15 483.967 603.15 482.254C603.15 480.542 601.762 479.153 600.049 479.153C598.336 479.153 596.948 480.542 596.948 482.254C596.948 483.967 598.336 485.356 600.049 485.356Z" stroke="#677272" stroke-width="1.08012"/>
<rect x="654.536" y="408.743" width="33.9199" height="62.9199" rx="1.62018" fill="#F0F0F0" stroke="#677272" stroke-width="1.08012"/>
<path d="M811.308 132.2C811.308 129.162 813.77 126.7 816.808 126.7L823.308 126.7L823.308 135.7L811.308 135.7L811.308 132.2V132.2Z" fill="#677272"/>
<path d="M814.306 132.701C814.306 131.044 815.649 129.701 817.306 129.701L823.306 129.701L823.306 132.701L814.306 132.701V132.701Z" fill="white"/>
<rect x="822.308" y="126.7" width="28.1875" height="9" fill="#677272"/>
<rect x="822.308" y="129.7" width="28.1875" height="3" fill="white"/>
<rect width="9" height="191.021" transform="matrix(-1 0 0 1 820.308 135.681)" fill="#677272"/>
<rect width="3" height="194.642" transform="matrix(-1 0 0 1 817.308 132.061)" fill="white"/>
<rect width="388" height="9" transform="matrix(1 0 0 -1 822.495 715.702)" fill="#677272"/>
<rect width="388" height="3" transform="matrix(1 0 0 -1 822.495 712.702)" fill="white"/>
<path d="M811.495 710.202C811.495 713.239 813.958 715.702 816.995 715.702H823.495V706.702H811.495V710.202V710.202Z" fill="#677272"/>
<path d="M814.495 709.702C814.495 711.358 815.838 712.702 817.495 712.702H823.495V709.702H814.495V709.702Z" fill="white"/>
<rect x="820.495" y="707.611" width="9" height="218.91" transform="rotate(180 820.495 707.611)" fill="#677272"/>
<rect x="817.495" y="711.202" width="3" height="224.001" transform="rotate(180 817.495 711.202)" fill="white"/>
<path d="M1220.5 709.529C1220.5 712.939 1217.73 715.703 1214.32 715.703H1208.5V705.6H1220.5V709.529V709.529Z" fill="#677272"/>
<path d="M1217.5 708.968C1217.5 710.828 1215.99 712.335 1214.13 712.335H1208.5V708.968H1217.5V708.968Z" fill="white"/>
<rect width="9" height="270.665" transform="matrix(1 0 0 -1 1211.5 706.368)" fill="#677272"/>
<rect width="3" height="275.078" transform="matrix(1 0 0 -1 1214.5 710.781)" fill="white"/>
<rect x="1082.47" y="126.7" width="104.108" height="9" fill="#677272"/>
<rect x="1082.47" y="129.7" width="104.108" height="3" fill="white"/>
<rect x="1264.48" y="254.7" width="9" height="68.5115" transform="rotate(-90 1264.48 254.7)" fill="#677272"/>
<rect x="1258.44" y="251.699" width="3" height="74.5566" transform="rotate(-90 1258.44 251.699)" fill="white"/>
<path d="M452.996 332.2H519.996V543.2H452.996V332.2Z" fill="#677272" stroke="#B3B9B9" stroke-width="3"/>
<path d="M453.495 337.7H519.21V341.7H453.495V337.7Z" fill="#B3B9B9"/>
<path d="M453.495 353.7H519.21V357.7H453.495V353.7Z" fill="#B3B9B9"/>
<path d="M453.495 369.7H519.21V373.7H453.495V369.7Z" fill="#B3B9B9"/>
<path d="M453.495 385.7H519.21V389.7H453.495V385.7Z" fill="#B3B9B9"/>
<path d="M453.495 401.7H519.21V405.7H453.495V401.7Z" fill="#B3B9B9"/>
<path d="M453.495 417.7H519.21V421.7H453.495V417.7Z" fill="#B3B9B9"/>
<path d="M453.495 433.7H519.21V437.7H453.495V433.7Z" fill="#B3B9B9"/>
<path d="M453.495 449.7H519.21V453.7H453.495V449.7Z" fill="#B3B9B9"/>
<path d="M453.495 465.7H519.21V469.7H453.495V465.7Z" fill="#B3B9B9"/>
<path d="M453.495 481.7H519.21V485.7H453.495V481.7Z" fill="#B3B9B9"/>
<path d="M453.495 497.7H519.21V501.7H453.495V497.7Z" fill="#B3B9B9"/>
<path d="M453.495 513.7H519.21V517.7H453.495V513.7Z" fill="#B3B9B9"/>
<path d="M453.495 529.7H519.21V533.7H453.495V529.7Z" fill="#B3B9B9"/>
<path d="M453.495 545.7H519.21V549.7H453.495V545.7Z" fill="#B3B9B9"/>
<path d="M453.495 561.7H519.21V565.7H453.495V561.7Z" fill="#B3B9B9"/>
<path d="M453.495 577.7H519.21V581.7H453.495V577.7Z" fill="#B3B9B9"/>
<path d="M399.459 156.531L393 164H581C574.91 155.427 561.239 152.418 555.164 151.985C551.551 152.418 542.8 152.569 536.71 149.712C529.098 146.14 512.49 149.712 505.8 149.712C500.448 149.712 489.576 145.382 484.809 143.217C480.733 142.243 471.337 140.067 466.355 139.158C461.372 138.249 448.439 141.485 442.595 143.217C438.981 144.841 429.723 148.413 421.604 149.712C413.484 151.011 403.457 154.799 399.459 156.531Z" fill="#323232"/>
<path d="M405.253 158.83L399 166H581C575.105 157.77 561.87 154.881 555.989 154.466C552.49 154.881 544.019 155.027 538.124 152.283C530.755 148.854 514.676 152.283 508.2 152.283C503.019 152.283 492.494 148.127 487.879 146.049C483.933 145.113 474.837 143.025 470.013 142.152C465.19 141.279 452.67 144.386 447.012 146.049C443.514 147.607 434.551 151.036 426.691 152.283C418.83 153.53 409.124 157.167 405.253 158.83Z" fill="#5E5C5C"/>
<path d="M574.747 160.622L581 166H399C404.895 159.828 418.13 157.661 424.011 157.349C427.51 157.661 435.981 157.77 441.876 155.713C449.245 153.141 465.324 155.713 471.8 155.713C476.981 155.713 487.506 152.595 492.121 151.036C496.067 150.335 505.163 148.768 509.987 148.114C514.81 147.459 527.331 149.789 532.988 151.036C536.486 152.205 545.449 154.777 553.309 155.713C561.17 156.648 570.876 159.376 574.747 160.622Z" fill="#7D7D7D"/>
<path d="M393 299L451.455 331H521.455L581 299V164.214H393V299Z" fill="#B3B9B9"/>
<path d="M447.495 621.7H526.495V713.7H447.495V621.7Z" fill="#B3B9B9"/>
<path d="M393.495 553.7L447.482 621.7H527.419L581.495 553.7V521.7H393.495V553.7Z" fill="#B3B9B9"/>
<g clip-path="url(#clip0_21_6592)">
<rect width="79" height="12" transform="matrix(-1 0 0 1 526.496 669.7)" fill="#F5F5F5"/>
<line y1="-1" x2="103.101" y2="-1" transform="matrix(-0.814647 0.579958 0.368052 0.929805 592.104 612.71)" stroke="#B3B9B9" stroke-width="2"/>
<line y1="-1" x2="103.101" y2="-1" transform="matrix(-0.814647 0.579958 0.368052 0.929805 508.104 612.71)" stroke="#B3B9B9" stroke-width="2"/>
<line y1="-1" x2="103.101" y2="-1" transform="matrix(-0.814647 0.579958 0.368052 0.929805 592.104 617.314)" stroke="#B3B9B9" stroke-width="2"/>
<line y1="-1" x2="103.101" y2="-1" transform="matrix(-0.814647 0.579958 0.368052 0.929805 508.104 617.314)" stroke="#B3B9B9" stroke-width="2"/>
<line y1="-1" x2="103.101" y2="-1" transform="matrix(-0.814647 0.579958 0.368052 0.929805 592.104 621.917)" stroke="#B3B9B9" stroke-width="2"/>
<line y1="-1" x2="103.101" y2="-1" transform="matrix(-0.814647 0.579958 0.368052 0.929805 508.104 621.917)" stroke="#B3B9B9" stroke-width="2"/>
<line y1="-1" x2="103.101" y2="-1" transform="matrix(-0.814647 0.579958 0.368052 0.929805 592.104 626.521)" stroke="#B3B9B9" stroke-width="2"/>
<line y1="-1" x2="103.101" y2="-1" transform="matrix(-0.814647 0.579958 0.368052 0.929805 508.104 626.521)" stroke="#B3B9B9" stroke-width="2"/>
<line y1="-1" x2="103.101" y2="-1" transform="matrix(-0.814647 0.579958 0.368052 0.929805 592.104 631.125)" stroke="#B3B9B9" stroke-width="2"/>
<line y1="-1" x2="103.101" y2="-1" transform="matrix(-0.814647 0.579958 0.368052 0.929805 508.104 631.125)" stroke="#B3B9B9" stroke-width="2"/>
<line y1="-1" x2="103.101" y2="-1" transform="matrix(-0.814647 0.579958 0.368052 0.929805 592.104 681.767)" stroke="#B3B9B9" stroke-width="2"/>
<line y1="-1" x2="103.101" y2="-1" transform="matrix(-0.814647 0.579958 0.368052 0.929805 508.104 681.767)" stroke="#B3B9B9" stroke-width="2"/>
<line y1="-1" x2="103.101" y2="-1" transform="matrix(-0.814647 0.579958 0.368052 0.929805 592.104 635.729)" stroke="#B3B9B9" stroke-width="2"/>
<line y1="-1" x2="103.101" y2="-1" transform="matrix(-0.814647 0.579958 0.368052 0.929805 508.104 635.729)" stroke="#B3B9B9" stroke-width="2"/>
<line y1="-1" x2="103.101" y2="-1" transform="matrix(-0.814647 0.579958 0.368052 0.929805 592.104 640.333)" stroke="#B3B9B9" stroke-width="2"/>
<line y1="-1" x2="103.101" y2="-1" transform="matrix(-0.814647 0.579958 0.368052 0.929805 508.104 640.333)" stroke="#B3B9B9" stroke-width="2"/>
<line y1="-1" x2="103.101" y2="-1" transform="matrix(-0.814647 0.579958 0.368052 0.929805 592.104 644.937)" stroke="#B3B9B9" stroke-width="2"/>
<line y1="-1" x2="103.101" y2="-1" transform="matrix(-0.814647 0.579958 0.368052 0.929805 508.104 644.937)" stroke="#B3B9B9" stroke-width="2"/>
<line y1="-1" x2="103.101" y2="-1" transform="matrix(-0.814647 0.579958 0.368052 0.929805 592.104 649.541)" stroke="#B3B9B9" stroke-width="2"/>
<line y1="-1" x2="103.101" y2="-1" transform="matrix(-0.814647 0.579958 0.368052 0.929805 508.104 649.541)" stroke="#B3B9B9" stroke-width="2"/>
<line y1="-1" x2="103.101" y2="-1" transform="matrix(-0.814647 0.579958 0.368052 0.929805 592.104 654.144)" stroke="#B3B9B9" stroke-width="2"/>
<line y1="-1" x2="103.101" y2="-1" transform="matrix(-0.814647 0.579958 0.368052 0.929805 508.104 654.144)" stroke="#B3B9B9" stroke-width="2"/>
<line y1="-1" x2="103.101" y2="-1" transform="matrix(-0.814647 0.579958 0.368052 0.929805 592.104 658.748)" stroke="#B3B9B9" stroke-width="2"/>
<line y1="-1" x2="103.101" y2="-1" transform="matrix(-0.814647 0.579958 0.368052 0.929805 508.104 658.748)" stroke="#B3B9B9" stroke-width="2"/>
<line y1="-1" x2="103.101" y2="-1" transform="matrix(-0.814647 0.579958 0.368052 0.929805 592.104 663.352)" stroke="#B3B9B9" stroke-width="2"/>
<line y1="-1" x2="103.101" y2="-1" transform="matrix(-0.814647 0.579958 0.368052 0.929805 508.104 663.352)" stroke="#B3B9B9" stroke-width="2"/>
<line y1="-1" x2="103.101" y2="-1" transform="matrix(-0.814647 0.579958 0.368052 0.929805 592.104 667.956)" stroke="#B3B9B9" stroke-width="2"/>
<line y1="-1" x2="103.101" y2="-1" transform="matrix(-0.814647 0.579958 0.368052 0.929805 508.104 667.956)" stroke="#B3B9B9" stroke-width="2"/>
<line y1="-1" x2="103.101" y2="-1" transform="matrix(-0.814647 0.579958 0.368052 0.929805 592.104 672.56)" stroke="#B3B9B9" stroke-width="2"/>
<line y1="-1" x2="103.101" y2="-1" transform="matrix(-0.814647 0.579958 0.368052 0.929805 508.104 672.56)" stroke="#B3B9B9" stroke-width="2"/>
<line y1="-1" x2="103.101" y2="-1" transform="matrix(-0.814647 0.579958 0.368052 0.929805 592.104 677.164)" stroke="#B3B9B9" stroke-width="2"/>
<line y1="-1" x2="103.101" y2="-1" transform="matrix(-0.814647 0.579958 0.368052 0.929805 508.104 677.164)" stroke="#B3B9B9" stroke-width="2"/>
</g>
<path d="M487.496 138.7L496.156 123.7L478.835 123.7L487.496 138.7ZM485.996 98.7002L485.996 125.2L488.996 125.2L488.996 98.7002L485.996 98.7002Z" fill="#677272"/>
<path d="M511.218 113.97H511.491V123.2H509.827V118.754C509.827 118 509.874 117.467 509.97 117.155L509.918 117.142C509.77 117.463 509.554 117.766 509.268 118.052L504.094 123.33H503.834V114.1H505.485V118.533C505.485 119.296 505.437 119.833 505.342 120.145L505.394 120.158C505.541 119.838 505.762 119.534 506.057 119.248L511.218 113.97ZM515.215 123.395C514.209 123.395 513.334 123.209 512.589 122.836L513.148 121.562C513.806 121.892 514.474 122.056 515.15 122.056C515.583 122.056 515.895 122.004 516.086 121.9C516.276 121.788 516.372 121.614 516.372 121.38C516.372 120.921 516.034 120.691 515.358 120.691H514.487V119.443H515.267C515.795 119.443 516.06 119.261 516.06 118.897C516.06 118.525 515.722 118.338 515.046 118.338C514.474 118.338 513.854 118.486 513.187 118.78L512.68 117.506C513.555 117.168 514.413 116.999 515.254 116.999C516.866 116.999 517.672 117.524 517.672 118.572C517.672 119.439 517.156 119.911 516.125 119.989V120.041C517.321 120.111 517.919 120.622 517.919 121.575C517.919 122.789 517.017 123.395 515.215 123.395ZM529.09 123.278C528.033 123.278 527.409 122.802 527.218 121.848L526.906 120.327C526.828 119.903 526.69 119.599 526.49 119.417C526.3 119.235 526.014 119.144 525.632 119.144H524.891C524.692 119.144 524.562 119.127 524.501 119.092L524.488 119.118C524.532 119.231 524.553 119.387 524.553 119.586V123.2H522.889V114.1H524.553V117.363C524.553 117.554 524.532 117.706 524.488 117.818L524.501 117.844C524.571 117.81 524.701 117.792 524.891 117.792H525.632C525.988 117.792 526.261 117.701 526.451 117.519C526.651 117.329 526.798 117.017 526.893 116.583L527.205 115.283C527.405 114.443 528.033 114.022 529.09 114.022C529.411 114.022 529.688 114.04 529.922 114.074V115.595C529.801 115.578 529.649 115.569 529.467 115.569C529.043 115.569 528.787 115.747 528.7 116.102L528.414 117.194C528.302 117.662 528.102 117.983 527.816 118.156C527.539 118.321 527.045 118.412 526.334 118.429V118.481C527.062 118.499 527.582 118.603 527.894 118.793C528.206 118.984 528.406 119.322 528.492 119.807L528.726 120.899C528.787 121.194 528.874 121.402 528.986 121.523C529.099 121.636 529.277 121.692 529.519 121.692C529.597 121.692 529.779 121.679 530.065 121.653V123.226C529.719 123.261 529.394 123.278 529.09 123.278ZM534.767 117.545C535.703 117.545 536.448 117.792 537.003 118.286C537.566 118.78 537.848 119.474 537.848 120.366C537.848 121.268 537.566 121.965 537.003 122.459C536.44 122.953 535.694 123.2 534.767 123.2H531.192V114.1H537.341V115.634H533.168C533.012 115.634 532.899 115.617 532.83 115.582L532.804 115.608C532.839 115.695 532.856 115.816 532.856 115.972V117.22C532.856 117.368 532.839 117.485 532.804 117.571L532.83 117.597C532.899 117.563 533.012 117.545 533.168 117.545H534.767ZM534.559 121.692C535.59 121.692 536.106 121.25 536.106 120.366C536.106 119.95 535.972 119.63 535.703 119.404C535.434 119.17 535.053 119.053 534.559 119.053H533.168C533.003 119.053 532.891 119.032 532.83 118.988L532.804 119.014C532.839 119.101 532.856 119.222 532.856 119.378V121.354C532.856 121.51 532.839 121.632 532.804 121.718L532.83 121.744C532.899 121.71 533.012 121.692 533.168 121.692H534.559ZM546.208 125.007V123.525C546.208 123.361 546.23 123.244 546.273 123.174L546.247 123.148C546.178 123.183 546.061 123.2 545.896 123.2H539.266V114.1H540.93V121.341C540.93 121.506 540.909 121.623 540.865 121.692L540.891 121.718C540.961 121.684 541.078 121.666 541.242 121.666H544.687C544.852 121.666 544.969 121.684 545.038 121.718L545.064 121.692C545.021 121.623 544.999 121.506 544.999 121.341V114.1H546.663V121.341C546.663 121.489 546.646 121.606 546.611 121.692L546.637 121.718C546.698 121.684 546.815 121.666 546.988 121.666H547.781V125.007H546.208Z" fill="#121212"/>
<path d="M490.496 754.471L499.156 739.471H481.835L490.496 754.471ZM488.996 717.702V740.971H491.996V717.702H488.996Z" fill="#677272"/>
<path d="M506.773 740.586V731.486H510.335C511.123 731.486 511.752 731.694 512.22 732.11C512.688 732.518 512.922 733.064 512.922 733.748C512.922 734.208 512.813 734.598 512.597 734.918C512.38 735.239 512.077 735.464 511.687 735.594C511.461 735.681 511.227 735.729 510.985 735.737V735.789C511.219 735.789 511.461 735.82 511.713 735.88C512.276 736.002 512.705 736.253 513 736.634C513.303 737.007 513.455 737.484 513.455 738.064C513.455 738.836 513.195 739.451 512.675 739.91C512.155 740.361 511.457 740.586 510.582 740.586H506.773ZM508.411 735.23C508.48 735.196 508.593 735.178 508.749 735.178H509.919C510.343 735.178 510.668 735.079 510.894 734.879C511.128 734.671 511.245 734.385 511.245 734.021C511.245 733.311 510.824 732.955 509.984 732.955H508.749C508.584 732.955 508.471 732.934 508.411 732.89L508.385 732.916C508.419 733.003 508.437 733.12 508.437 733.267V734.853C508.437 735.001 508.419 735.118 508.385 735.204L508.411 735.23ZM508.411 739.182C508.541 739.139 508.658 739.117 508.762 739.117H510.257C511.236 739.117 511.726 738.706 511.726 737.882C511.726 737.042 511.201 736.621 510.153 736.621H508.749C508.593 736.621 508.48 736.604 508.411 736.569L508.385 736.595C508.419 736.682 508.437 736.799 508.437 736.946V738.792C508.437 738.948 508.419 739.07 508.385 739.156L508.411 739.182ZM517.774 742.406V739.273H518.333C518.463 739.273 518.567 739.291 518.645 739.325L518.658 739.312C518.649 739.234 518.675 739.126 518.736 738.987C519.238 738.069 519.49 737.003 519.49 735.789V734.58H524.053V738.974C524.053 739.087 524.031 739.2 523.988 739.312L524.001 739.325C524.079 739.291 524.2 739.273 524.365 739.273H524.859V742.406H523.416V740.95C523.416 740.838 523.437 740.725 523.481 740.612L523.468 740.599C523.39 740.634 523.268 740.651 523.104 740.651H519.529C519.364 740.651 519.243 740.634 519.165 740.599L519.152 740.612C519.195 740.699 519.217 740.812 519.217 740.95V742.406H517.774ZM520.179 739.338C520.265 739.295 520.395 739.273 520.569 739.273H522.233C522.397 739.273 522.519 739.291 522.597 739.325L522.61 739.312C522.566 739.226 522.545 739.113 522.545 738.974V736.231C522.545 736.093 522.566 735.98 522.61 735.893L522.597 735.88C522.519 735.915 522.397 735.932 522.233 735.932H521.245C521.08 735.932 520.959 735.915 520.881 735.88L520.868 735.893C520.911 735.98 520.933 736.093 520.933 736.231V736.517C520.933 736.994 520.859 737.501 520.712 738.038C520.564 738.567 520.382 738.992 520.166 739.312L520.179 739.338ZM528.84 736.465C529.524 736.465 530.066 736.643 530.465 736.998C530.863 737.354 531.063 737.861 531.063 738.519C531.063 739.169 530.859 739.676 530.452 740.04C530.044 740.404 529.503 740.586 528.827 740.586H525.863V734.58H527.449V736.166C527.449 736.305 527.427 736.418 527.384 736.504L527.397 736.517C527.475 736.483 527.596 736.465 527.761 736.465H528.84ZM531.544 734.58H533.13V740.586H531.544V734.58ZM528.606 739.247C529.134 739.247 529.399 739.009 529.399 738.532C529.399 738.047 529.134 737.804 528.606 737.804H527.761C527.596 737.804 527.475 737.787 527.397 737.752L527.384 737.765C527.427 737.852 527.449 737.965 527.449 738.103V738.948C527.449 739.087 527.427 739.2 527.384 739.286L527.397 739.299C527.475 739.265 527.596 739.247 527.761 739.247H528.606ZM538.249 740.677L537.144 738.298C536.936 737.848 536.819 737.536 536.793 737.362H536.741C536.723 737.588 536.637 737.908 536.481 738.324L535.688 740.586H533.972L536.39 734.489H536.806L538.171 737.362C538.309 737.631 538.396 737.874 538.431 738.09H538.483C538.526 737.865 538.617 737.622 538.756 737.362L540.121 734.489H540.537L542.955 740.586H541.239L540.433 738.324C540.285 737.891 540.203 737.57 540.186 737.362H540.134C540.116 737.492 539.999 737.804 539.783 738.298L538.678 740.677H538.249ZM543.979 735.282C544.611 734.684 545.409 734.385 546.371 734.385C547.333 734.385 548.126 734.684 548.75 735.282C549.382 735.88 549.699 736.647 549.699 737.583C549.699 738.519 549.382 739.286 548.75 739.884C548.126 740.482 547.333 740.781 546.371 740.781C545.409 740.781 544.611 740.482 543.979 739.884C543.355 739.286 543.043 738.519 543.043 737.583C543.043 736.647 543.355 735.88 543.979 735.282ZM547.593 736.361C547.281 736.049 546.873 735.893 546.371 735.893C545.868 735.893 545.461 736.049 545.149 736.361C544.837 736.665 544.681 737.072 544.681 737.583C544.681 738.095 544.837 738.506 545.149 738.818C545.461 739.122 545.868 739.273 546.371 739.273C546.873 739.273 547.281 739.122 547.593 738.818C547.905 738.506 548.061 738.095 548.061 737.583C548.061 737.072 547.905 736.665 547.593 736.361ZM555.345 737.583C555.926 737.757 556.216 738.203 556.216 738.922C556.216 739.451 556.026 739.863 555.644 740.157C555.272 740.443 554.795 740.586 554.214 740.586H550.834V734.58H554.227C555.432 734.58 556.034 735.07 556.034 736.049C556.034 736.63 555.805 737.029 555.345 737.245C555.129 737.358 554.821 737.419 554.422 737.427V737.479C554.812 737.479 555.12 737.514 555.345 737.583ZM552.355 735.815C552.399 735.893 552.42 736.01 552.42 736.166V736.673C552.42 736.812 552.399 736.925 552.355 737.011L552.368 737.024C552.446 736.99 552.568 736.972 552.732 736.972H553.707C554.141 736.972 554.357 736.777 554.357 736.387C554.357 736.032 554.136 735.854 553.694 735.854H552.732C552.568 735.854 552.446 735.837 552.368 735.802L552.355 735.815ZM553.837 739.312C554.305 739.312 554.539 739.1 554.539 738.675C554.539 738.268 554.305 738.064 553.837 738.064H552.732C552.568 738.064 552.446 738.047 552.368 738.012L552.355 738.025C552.399 738.112 552.42 738.22 552.42 738.35V739.013C552.42 739.152 552.399 739.265 552.355 739.351L552.368 739.364C552.446 739.33 552.568 739.312 552.732 739.312H553.837ZM563.045 734.58L559.314 743.199H557.689L559.028 740.157L556.493 734.58H558.248L559.444 737.44C559.635 737.874 559.739 738.311 559.756 738.753H559.808C559.817 738.415 559.895 738.069 560.042 737.713L561.316 734.58H563.045ZM569.428 734.385C570.39 734.385 571.183 734.684 571.807 735.282C572.44 735.88 572.756 736.647 572.756 737.583C572.756 738.519 572.44 739.286 571.807 739.884C571.183 740.482 570.39 740.781 569.428 740.781C568.596 740.781 567.881 740.552 567.283 740.092C566.685 739.633 566.312 739.026 566.165 738.272H565.541C565.368 738.272 565.246 738.255 565.177 738.22L565.164 738.233C565.207 738.32 565.229 738.433 565.229 738.571V740.586H563.682V734.58H565.229V736.582C565.229 736.721 565.207 736.834 565.164 736.92L565.177 736.933C565.246 736.899 565.368 736.881 565.541 736.881H566.165C566.321 736.127 566.694 735.525 567.283 735.074C567.881 734.615 568.596 734.385 569.428 734.385ZM568.206 738.818C568.518 739.122 568.925 739.273 569.428 739.273C569.931 739.273 570.338 739.122 570.65 738.818C570.962 738.506 571.118 738.095 571.118 737.583C571.118 737.072 570.962 736.665 570.65 736.361C570.338 736.049 569.931 735.893 569.428 735.893C568.925 735.893 568.518 736.049 568.206 736.361C567.894 736.665 567.738 737.072 567.738 737.583C567.738 738.095 567.894 738.506 568.206 738.818ZM576.856 734.58H582.589V736.01H580.834C580.661 736.01 580.539 735.993 580.47 735.958L580.457 735.971C580.5 736.058 580.522 736.171 580.522 736.309V740.586H578.923V736.309C578.923 736.171 578.945 736.058 578.988 735.971L578.975 735.958C578.906 735.993 578.784 736.01 578.611 736.01H576.856V734.58ZM587.128 734.385C587.969 734.385 588.654 734.68 589.182 735.269C589.711 735.859 589.975 736.63 589.975 737.583C589.975 738.537 589.711 739.308 589.182 739.897C588.662 740.487 587.982 740.781 587.141 740.781C586.075 740.781 585.339 740.296 584.931 739.325L584.879 739.338C584.957 739.72 584.996 740.127 584.996 740.56V743.186H583.423V734.58H584.983C584.983 735.1 584.944 735.516 584.866 735.828L584.918 735.841C585.386 734.871 586.123 734.385 587.128 734.385ZM586.673 735.841C586.162 735.841 585.746 736.002 585.425 736.322C585.105 736.643 584.944 737.063 584.944 737.583C584.944 738.103 585.105 738.524 585.425 738.844C585.746 739.165 586.162 739.325 586.673 739.325C587.185 739.325 587.583 739.169 587.869 738.857C588.164 738.545 588.311 738.121 588.311 737.583C588.311 737.046 588.164 736.621 587.869 736.309C587.575 735.997 587.176 735.841 586.673 735.841ZM596.611 734.58L592.88 743.199H591.255L592.594 740.157L590.059 734.58H591.814L593.01 737.44C593.201 737.874 593.305 738.311 593.322 738.753H593.374C593.383 738.415 593.461 738.069 593.608 737.713L594.882 734.58H596.611ZM600.151 740.781C599.085 740.781 598.24 740.439 597.616 739.754C596.992 739.061 596.68 738.056 596.68 736.738C596.68 734.788 597.235 733.48 598.344 732.812C598.535 732.7 598.769 732.596 599.046 732.5C599.324 732.396 599.675 732.284 600.099 732.162C600.533 732.041 600.767 731.976 600.801 731.967C601.183 731.855 601.382 731.673 601.399 731.421H603.011C603.011 731.872 602.92 732.236 602.738 732.513C602.565 732.782 602.27 732.986 601.854 733.124C601.759 733.159 601.356 733.263 600.645 733.436C599.935 733.61 599.441 733.766 599.163 733.904C598.739 734.112 598.435 734.42 598.253 734.827C598.071 735.235 597.976 735.772 597.967 736.439H598.006C598.162 735.815 598.461 735.339 598.903 735.009C599.354 734.68 599.896 734.511 600.528 734.502C601.404 734.502 602.106 734.78 602.634 735.334C603.172 735.88 603.44 736.617 603.44 737.544C603.44 738.506 603.137 739.286 602.53 739.884C601.932 740.482 601.139 740.781 600.151 740.781ZM600.112 739.273C600.589 739.273 600.983 739.117 601.295 738.805C601.616 738.485 601.776 738.073 601.776 737.57C601.776 737.068 601.616 736.66 601.295 736.348C600.983 736.036 600.58 735.88 600.086 735.88C599.61 735.88 599.211 736.041 598.89 736.361C598.57 736.673 598.409 737.076 598.409 737.57C598.409 738.082 598.57 738.493 598.89 738.805C599.211 739.117 599.618 739.273 600.112 739.273ZM610.081 734.58L606.35 743.199H604.725L606.064 740.157L603.529 734.58H605.284L606.48 737.44C606.671 737.874 606.775 738.311 606.792 738.753H606.844C606.853 738.415 606.931 738.069 607.078 737.713L608.352 734.58H610.081Z" fill="#121212"/>
<rect x="1184" y="85" width="148" height="95" rx="9" fill="#EFF2F6"/>
<rect x="1184" y="85" width="148" height="95" rx="9" stroke="white" stroke-width="2"/>
<rect x="730.496" y="320.703" width="171" height="170" rx="10" fill="#8D9595"/>
<path d="M742.996 326.703L745.791 328.362L748.625 329.953L748.586 333.203L748.625 336.453L745.791 338.044L742.996 339.703L740.201 338.044L737.367 336.453L737.406 333.203L737.367 329.953L740.201 328.362L742.996 326.703Z" fill="#677272"/>
<circle cx="743.056" cy="333.263" r="2.56" fill="#B3B9B9"/>
<path d="M742.996 398.703L745.791 400.362L748.625 401.953L748.586 405.203L748.625 408.453L745.791 410.044L742.996 411.703L740.201 410.044L737.367 408.453L737.406 405.203L737.367 401.953L740.201 400.362L742.996 398.703Z" fill="#677272"/>
<circle cx="743.056" cy="405.263" r="2.56" fill="#B3B9B9"/>
<path d="M742.996 471.703L745.791 473.362L748.625 474.953L748.586 478.203L748.625 481.453L745.791 483.044L742.996 484.703L740.201 483.044L737.367 481.453L737.406 478.203L737.367 474.953L740.201 473.362L742.996 471.703Z" fill="#677272"/>
<circle cx="743.056" cy="478.263" r="2.56" fill="#B3B9B9"/>
<path d="M815.996 326.703L818.791 328.362L821.625 329.953L821.586 333.203L821.625 336.453L818.791 338.044L815.996 339.703L813.201 338.044L810.367 336.453L810.406 333.203L810.367 329.953L813.201 328.362L815.996 326.703Z" fill="#677272"/>
<circle cx="816.056" cy="333.263" r="2.56" fill="#B3B9B9"/>
<path d="M815.996 471.703L818.791 473.362L821.625 474.953L821.586 478.203L821.625 481.453L818.791 483.044L815.996 484.703L813.201 483.044L810.367 481.453L810.406 478.203L810.367 474.953L813.201 473.362L815.996 471.703Z" fill="#677272"/>
<circle cx="816.056" cy="478.263" r="2.56" fill="#B3B9B9"/>
<path d="M888.996 326.703L891.791 328.362L894.625 329.953L894.586 333.203L894.625 336.453L891.791 338.044L888.996 339.703L886.201 338.044L883.367 336.453L883.406 333.203L883.367 329.953L886.201 328.362L888.996 326.703Z" fill="#677272"/>
<circle cx="889.056" cy="333.263" r="2.56" fill="#B3B9B9"/>
<path d="M888.996 398.703L891.791 400.362L894.625 401.953L894.586 405.203L894.625 408.453L891.791 410.044L888.996 411.703L886.201 410.044L883.367 408.453L883.406 405.203L883.367 401.953L886.201 400.362L888.996 398.703Z" fill="#677272"/>
<circle cx="889.056" cy="405.263" r="2.56" fill="#B3B9B9"/>
<path d="M888.996 471.703L891.791 473.362L894.625 474.953L894.586 478.203L894.625 481.453L891.791 483.044L888.996 484.703L886.201 483.044L883.367 481.453L883.406 478.203L883.367 474.953L886.201 473.362L888.996 471.703Z" fill="#677272"/>
<circle cx="889.056" cy="478.263" r="2.56" fill="#B3B9B9"/>
<rect x="755.496" y="345.703" width="121" height="120" rx="9" fill="#EFF2F6" stroke="#677272" stroke-width="2"/>
<rect x="779.496" y="528.246" width="9" height="62.5455" transform="rotate(180 779.496 528.246)" fill="#677272"/>
<rect x="776.496" y="530.7" width="3" height="64" transform="rotate(180 776.496 530.7)" fill="white"/>
<rect x="861.495" y="528.246" width="9" height="62.5455" transform="rotate(180 861.495 528.246)" fill="#677272"/>
<rect x="858.495" y="530.7" width="3" height="64" transform="rotate(180 858.495 530.7)" fill="white"/>
<rect x="779.496" y="345.246" width="9" height="62.5455" transform="rotate(180 779.496 345.246)" fill="#677272"/>
<rect x="776.496" y="344.7" width="3" height="64" transform="rotate(180 776.496 344.7)" fill="white"/>
<path d="M579.496 507.703C579.496 510.741 581.958 513.203 584.996 513.203H591.496V504.203H579.496V507.703V507.703Z" fill="#677272"/>
<path d="M582.498 507.198C582.498 508.854 583.841 510.198 585.498 510.198H591.498V507.198H582.498V507.198Z" fill="white"/>
<path d="M624.998 608.419C624.998 611.456 627.46 613.919 630.498 613.919H636.998V604.919H624.998V608.419V608.419Z" fill="#677272"/>
<path d="M628 607.913C628 609.57 629.343 610.913 631 610.913H637V607.913H628V607.913Z" fill="white"/>
<path d="M628.5 504.194C631.537 504.194 634 506.657 634 509.694L634 516.194L625 516.194L625 504.194L628.5 504.194V504.194Z" fill="#677272"/>
<path d="M627.992 507.198C629.649 507.198 630.992 508.542 630.992 510.198L630.992 516.198L627.992 516.198L627.992 507.198V507.198Z" fill="white"/>
<rect x="861.495" y="345.246" width="9" height="62.5455" transform="rotate(180 861.495 345.246)" fill="#677272"/>
<rect x="858.495" y="344.7" width="3" height="64" transform="rotate(180 858.495 344.7)" fill="white"/>
<path d="M375.496 425.855V434.855L333.473 434.855L333.473 425.855L375.496 425.855Z" fill="#677272"/>
<path d="M375.496 428.855V431.855L333.801 431.855L333.801 428.855L375.496 428.855Z" fill="white"/>
<path d="M396.317 507.703C396.317 510.741 393.854 513.203 390.817 513.203H384.317V504.203H396.317V507.703V507.703Z" fill="#677272"/>
<path d="M393.315 507.197C393.315 508.854 391.972 510.197 390.315 510.197H384.315V507.197H393.315V507.197Z" fill="white"/>
<rect x="389.658" y="504.203" width="9" height="49.2014" transform="rotate(90 389.658 504.203)" fill="#677272"/>
<rect x="390.015" y="507.203" width="3" height="50.3456" transform="rotate(90 390.015 507.203)" fill="white"/>
<rect x="387.679" y="475.7" width="8.63751" height="31.0099" fill="#677272"/>
<rect x="390.56" y="475.7" width="2.87917" height="31.503" fill="white"/>
<rect x="588.496" y="506.981" width="9" height="31.2701" transform="rotate(180 588.496 506.981)" fill="#677272"/>
<rect x="585.496" y="507.7" width="3" height="31.9973" transform="rotate(180 585.496 507.7)" fill="white"/>
<rect x="634" y="607.912" width="9" height="92.5374" transform="rotate(180 634 607.912)" fill="#677272"/>
<rect x="631" y="608.958" width="3" height="93.6053" transform="rotate(180 631 608.958)" fill="white"/>
<rect x="589.384" y="513.198" width="9" height="38.5986" transform="rotate(-90 589.384 513.198)" fill="#677272"/>
<rect x="588.496" y="510.196" width="3" height="39.4962" transform="rotate(-90 588.496 510.196)" fill="white"/>
<rect x="633.439" y="613.913" width="9" height="40.8088" transform="rotate(-90 633.439 613.913)" fill="#677272"/>
<rect x="632.5" y="610.912" width="3" height="41.7578" transform="rotate(-90 632.5 610.912)" fill="white"/>
<rect x="1384" y="521.242" width="9" height="131.54" transform="rotate(180 1384 521.242)" fill="#677272"/>
<rect x="1381" y="521.245" width="3" height="130.392" transform="rotate(180 1381 521.245)" fill="white"/>
<rect x="1054" y="541.699" width="9" height="151.999" transform="rotate(180 1054 541.699)" fill="#677272"/>
<rect x="1051" y="541.702" width="3" height="150.673" transform="rotate(180 1051 541.702)" fill="white"/>
<defs>
<clipPath id="clip0_21_6592">
<rect width="79" height="12" fill="white" transform="matrix(-1 0 0 1 526.496 669.7)"/>
</clipPath>
</defs>
</svg>
