<svg width="16" height="16" viewBox="0 0 16 16" fill="none" xmlns="http://www.w3.org/2000/svg">
<path fill-rule="evenodd" clip-rule="evenodd" d="M8 0.666626C8.36819 0.666626 8.66667 0.965103 8.66667 1.33329V2.04551C9.3552 2.13855 10.184 2.39329 10.9166 2.97938C11.937 3.79568 12.6668 5.17091 12.6668 7.33329C12.6668 9.04308 13.1893 10.3959 14.1376 11.2507C14.4154 11.501 14.4522 11.861 14.358 12.1273C14.2624 12.3977 13.9952 12.6666 13.6001 12.6666H2.40014C2.00505 12.6666 1.73788 12.3977 1.64229 12.1273C1.5481 11.861 1.58489 11.501 1.86264 11.2507C2.81099 10.3959 3.33348 9.04308 3.33348 7.33329C3.33348 5.17091 4.06331 3.79568 5.08368 2.97938C5.81619 2.39337 6.64485 2.13862 7.33333 2.04555V1.33329C7.33333 0.965103 7.63181 0.666626 8 0.666626ZM5.91661 4.02054C5.27031 4.53758 4.66681 5.49567 4.66681 7.33329C4.66681 8.84572 4.30967 10.2361 3.55158 11.3333H12.4487C11.6906 10.2361 11.3335 8.84572 11.3335 7.33329C11.3335 5.49567 10.73 4.53758 10.0837 4.02054C9.40832 3.48025 8.57572 3.33329 8.00014 3.33329C7.42456 3.33329 6.59196 3.48025 5.91661 4.02054Z" fill="#B1B1B2"/>
<path d="M7.22144 13.6302C7.0172 13.3239 6.60329 13.2411 6.29694 13.4453C5.99058 13.6496 5.9078 14.0635 6.11204 14.3698C7.04259 15.7657 8.95756 15.7657 9.8881 14.3698C10.0923 14.0635 10.0096 13.6496 9.7032 13.4453C9.39685 13.2411 8.98294 13.3239 8.7787 13.6302C8.37592 14.2344 7.62422 14.2344 7.22144 13.6302Z" fill="#B1B1B2"/>
</svg>
