<svg width="10" height="10" viewBox="0 0 10 10" fill="none" xmlns="http://www.w3.org/2000/svg">
<g clip-path="url(#clip0_12_1278)">
<line x1="5.05005" y1="0.75" x2="5.05005" y2="3.25" stroke="#E32112" stroke-width="1.5" stroke-linecap="round"/>
<path d="M7.17158 1.23872C7.35296 0.924554 7.75799 0.813697 8.04569 1.03467C8.73808 1.56648 9.28238 2.27295 9.6194 3.08658C10.0406 4.10347 10.1145 5.23093 9.82963 6.29409C9.54475 7.35726 8.91703 8.29672 8.04381 8.96677C7.17059 9.63681 6.10067 10 5 10C3.89933 10 2.82941 9.63681 1.95619 8.96677C1.08297 8.29672 0.455246 7.35726 0.170371 6.2941C-0.114504 5.23093 -0.0406067 4.10347 0.380602 3.08658C0.717621 2.27295 1.26192 1.56648 1.95431 1.03467C2.242 0.813698 2.64704 0.924554 2.82842 1.23872V1.23872C3.00981 1.55288 2.89721 1.95061 2.62017 2.18481C2.17348 2.56243 1.82054 3.04312 1.5943 3.58931C1.28376 4.33902 1.22927 5.17026 1.4393 5.95409C1.64933 6.73792 2.11213 7.43054 2.75592 7.92454C3.39971 8.41854 4.18852 8.68631 5 8.68631C5.81148 8.68631 6.60029 8.41854 7.24408 7.92454C7.88787 7.43054 8.35067 6.73792 8.5607 5.95409C8.77073 5.17025 8.71624 4.33902 8.4057 3.58931C8.17946 3.04312 7.82652 2.56243 7.37983 2.18481C7.10279 1.95061 6.99019 1.55288 7.17158 1.23872V1.23872Z" fill="#E32112"/>
</g>
<defs>
<clipPath id="clip0_12_1278">
<rect width="10" height="10" fill="white"/>
</clipPath>
</defs>
</svg>
