<svg width="14" height="14" viewBox="0 0 14 14" fill="none" xmlns="http://www.w3.org/2000/svg">
<path d="M8.41391 8.26623C8.38279 8.24652 8.35715 8.21927 8.33936 8.18701C8.32158 8.15474 8.31224 8.11851 8.3122 8.08166V2.18854C8.3122 1.84044 8.17391 1.5066 7.92777 1.26046C7.68163 1.01432 7.34779 0.876038 6.9997 0.876038C6.6516 0.876038 6.31776 1.01432 6.07162 1.26046C5.82548 1.5066 5.6872 1.84044 5.6872 2.18854V8.08166C5.68714 8.11843 5.67781 8.1546 5.66008 8.18681C5.64235 8.21902 5.61679 8.24624 5.58575 8.26596C5.19698 8.51921 4.88103 8.86951 4.66911 9.28227C4.4572 9.69502 4.35666 10.1559 4.37743 10.6194C4.40872 11.3044 4.70679 11.95 5.20791 12.418C5.70902 12.8861 6.37339 13.1395 7.05891 13.124C7.74444 13.1085 8.3967 12.8254 8.87619 12.3353C9.35568 11.8451 9.62434 11.1867 9.6247 10.501C9.62489 10.0572 9.51424 9.6203 9.3028 9.23004C9.09137 8.83978 8.78583 8.50849 8.41391 8.26623V8.26623Z" stroke="black" stroke-width="1.00189" stroke-miterlimit="10" stroke-linecap="round"/>
<path d="M6.99963 3.0639V10.5014" stroke="black" stroke-width="1.00189" stroke-miterlimit="10" stroke-linecap="round"/>
<path d="M7.00048 11.8145C7.72588 11.8145 8.31394 11.2264 8.31394 10.501C8.31394 9.77562 7.72588 9.18756 7.00048 9.18756C6.27507 9.18756 5.68701 9.77562 5.68701 10.501C5.68701 11.2264 6.27507 11.8145 7.00048 11.8145Z" fill="black"/>
</svg>
