<svg width="16" height="16" viewBox="0 0 16 16" fill="none" xmlns="http://www.w3.org/2000/svg">
<path d="M9.61643 9.44716C9.58085 9.42463 9.55155 9.39349 9.53122 9.35661C9.5109 9.31974 9.50022 9.27833 9.50018 9.23622V2.50122C9.50018 2.1034 9.34214 1.72187 9.06084 1.44056C8.77953 1.15926 8.398 1.00122 8.00018 1.00122C7.60235 1.00122 7.22082 1.15926 6.93951 1.44056C6.65821 1.72187 6.50018 2.1034 6.50018 2.50122V9.23622C6.50011 9.27824 6.48945 9.31957 6.46919 9.35639C6.44892 9.3932 6.41971 9.42431 6.38424 9.44685C5.93993 9.73627 5.57884 10.1366 5.33665 10.6083C5.09446 11.0801 4.97956 11.6068 5.0033 12.1365C5.03906 12.9194 5.37972 13.6572 5.95242 14.1921C6.52512 14.727 7.28439 15.0166 8.06785 14.9989C8.85131 14.9812 9.59675 14.6577 10.1447 14.0975C10.6927 13.5373 10.9998 12.7849 11.0002 12.0012C11.0004 11.494 10.8739 10.9947 10.6323 10.5487C10.3907 10.1026 10.0415 9.72403 9.61643 9.44716V9.44716Z" stroke="#B3B3B3" stroke-width="1.00189" stroke-miterlimit="10" stroke-linecap="round"/>
<path d="M8.00024 3.50159V12.0016" stroke="#B3B3B3" stroke-width="1.00189" stroke-miterlimit="10" stroke-linecap="round"/>
<path d="M8.0011 13.5023C8.83014 13.5023 9.50221 12.8302 9.50221 12.0012C9.50221 11.1721 8.83014 10.5001 8.0011 10.5001C7.17207 10.5001 6.5 11.1721 6.5 12.0012C6.5 12.8302 7.17207 13.5023 8.0011 13.5023Z" fill="#B3B3B3"/>
</svg>
