<svg width="14" height="14" viewBox="0 0 14 14" fill="none" xmlns="http://www.w3.org/2000/svg">
<path d="M5.69503 5.25677C5.26814 5.73729 5.03235 6.35771 5.03235 7.00046C5.03235 7.64321 5.26814 8.26364 5.69503 8.74415" stroke="black" stroke-width="1.00189" stroke-linecap="round" stroke-linejoin="round"/>
<path d="M8.33508 8.74415C8.76198 8.26364 8.99777 7.64321 8.99777 7.00046C8.99777 6.35771 8.76198 5.73729 8.33508 5.25677" stroke="black" stroke-width="1.00189" stroke-linecap="round" stroke-linejoin="round"/>
<path d="M4.30101 3.86316C3.50566 4.71406 3.06323 5.8353 3.06323 7.00003C3.06323 8.16477 3.50566 9.28601 4.30101 10.1369" stroke="black" stroke-width="1.00189" stroke-linecap="round" stroke-linejoin="round"/>
<path d="M9.72778 10.1369C10.5231 9.28601 10.9656 8.16477 10.9656 7.00003C10.9656 5.8353 10.5231 4.71406 9.72778 3.86316" stroke="black" stroke-width="1.00189" stroke-linecap="round" stroke-linejoin="round"/>
<path d="M11.2666 11.3745C12.3408 10.1703 12.9345 8.6131 12.9345 6.99945C12.9345 5.3858 12.3408 3.82855 11.2666 2.62445" stroke="black" stroke-width="1.00189" stroke-linecap="round" stroke-linejoin="round"/>
<path d="M2.76241 2.62445C1.68817 3.82855 1.09448 5.3858 1.09448 6.99945C1.09448 8.6131 1.68817 10.1703 2.76241 11.3745" stroke="black" stroke-width="1.00189" stroke-linecap="round" stroke-linejoin="round"/>
</svg>
