<svg width="14" height="14" viewBox="0 0 14 14" fill="none" xmlns="http://www.w3.org/2000/svg">
<path fill-rule="evenodd" clip-rule="evenodd" d="M12.8333 7.00002C12.8333 10.2217 10.2216 12.8334 6.99996 12.8334C3.7783 12.8334 1.16663 10.2217 1.16663 7.00002C1.16663 3.77836 3.7783 1.16669 6.99996 1.16669C10.2216 1.16669 12.8333 3.77836 12.8333 7.00002ZM6.41663 4.66669C6.41663 4.34452 6.67779 4.08335 6.99996 4.08335H7.00579C7.32796 4.08335 7.58913 4.34452 7.58913 4.66669C7.58913 4.98885 7.32796 5.25002 7.00579 5.25002H6.99996C6.67779 5.25002 6.41663 4.98885 6.41663 4.66669ZM6.99996 6.41669C7.32213 6.41669 7.58329 6.67785 7.58329 7.00002V9.33335C7.58329 9.65552 7.32213 9.91669 6.99996 9.91669C6.67779 9.91669 6.41663 9.65552 6.41663 9.33335V7.00002C6.41663 6.67785 6.67779 6.41669 6.99996 6.41669Z" fill="#FAB82E"/>
</svg>
